<svg width="48" height="48" viewBox="0 0 48 48" fill="none" xmlns="http://www.w3.org/2000/svg">
<circle cx="24" cy="24" r="23" stroke="#8A941E"/>
<path fill-rule="evenodd" clip-rule="evenodd" d="M37.8235 23.1273C37.9066 23.2339 37.9516 23.3651 37.9513 23.5V28.8788C37.9513 29.5482 37.4063 30.0909 36.7339 30.0909H34.3874C34.0876 31.685 32.6898 32.8404 31.0609 32.8404C29.432 32.8404 28.0342 31.685 27.7344 30.0909H21.7022C21.4024 31.685 20.0045 32.8404 18.3757 32.8404C16.7468 32.8404 15.349 31.685 15.0491 30.0909H13.3052C12.9691 30.0909 12.6965 29.8196 12.6965 29.4848C12.6965 29.1501 12.9691 28.8788 13.3052 28.8788H15.0431C15.3289 27.2708 16.7325 26.0988 18.3726 26.0988C20.0127 26.0988 21.4164 27.2708 21.7022 28.8788H27.7404C28.0263 27.2708 29.4299 26.0988 31.07 26.0988C32.7101 26.0988 34.1138 27.2708 34.3996 28.8788H36.7431V23.7061L35.2213 21.7697H26.6235C26.2873 21.7697 26.0148 21.4984 26.0148 21.1636V14.3818H13.6096C13.2734 14.3818 13.0009 14.1105 13.0009 13.7758C13.0009 13.441 13.2734 13.1697 13.6096 13.1697H26.6235C26.9597 13.1697 27.2322 13.441 27.2322 13.7758V14.7152H30.8022C32.209 14.72 33.4893 15.5251 34.0983 16.7879L36.0583 20.8788L37.8235 23.1273ZM30.8113 15.9242H27.2322V20.5667H34.57L33.0087 17.3061C32.605 16.4622 31.7501 15.9245 30.8113 15.9242ZM18.3726 31.6303C17.4944 31.6315 16.702 31.1056 16.3653 30.2979C16.0287 29.4903 16.2141 28.5602 16.8352 27.9419C17.4562 27.3236 18.3903 27.1389 19.2014 27.4741C20.0126 27.8093 20.5408 28.5983 20.5396 29.4727C20.5379 30.6636 19.5687 31.6286 18.3726 31.6303ZM29.0558 30.2958C29.3915 31.1036 30.1829 31.6303 31.0609 31.6303C32.2582 31.6303 33.2292 30.6648 33.2309 29.4727C33.2321 28.5986 32.7042 27.8098 31.8934 27.4744C31.0826 27.1391 30.1488 27.3232 29.5275 27.9408C28.9063 28.5585 28.7201 29.4881 29.0558 30.2958Z" fill="black"/>
<path d="M16.1357 24.8182C16.1357 24.4835 15.8631 24.2121 15.527 24.2121H12.1791C11.843 24.2121 11.5704 24.4835 11.5704 24.8182C11.5704 25.1529 11.843 25.4242 12.1791 25.4242H15.527C15.8631 25.4242 16.1357 25.1529 16.1357 24.8182Z" fill="black"/>
<path d="M10.6574 21.7879H17.6574C17.9936 21.7879 18.2661 21.5165 18.2661 21.1818C18.2661 20.8471 17.9936 20.5758 17.6574 20.5758H10.6574C10.3212 20.5758 10.0487 20.8471 10.0487 21.1818C10.0487 21.5165 10.3212 21.7879 10.6574 21.7879Z" fill="black"/>
<path d="M11.5704 17.5455C11.5704 17.8802 11.843 18.1515 12.1791 18.1515H19.1791C19.5153 18.1515 19.7878 17.8802 19.7878 17.5455C19.7878 17.2107 19.5153 16.9394 19.1791 16.9394H12.1791C11.843 16.9394 11.5704 17.2107 11.5704 17.5455Z" fill="black"/>
</svg>
