<svg width="46" height="46" viewBox="0 0 46 46" fill="none" xmlns="http://www.w3.org/2000/svg">
<circle cx="23" cy="23" r="22" stroke="#8A941E"/>
<path fill-rule="evenodd" clip-rule="evenodd" d="M14.791 16.9585H32.2077V31.2085C32.2077 32.0829 31.4988 32.7918 30.6243 32.7918H16.3743C15.4999 32.7918 14.791 32.0829 14.791 31.2085V16.9585V16.9585Z" stroke="black" stroke-width="0.75" stroke-linejoin="round"/>
<rect x="14" y="16.9585" width="19" height="3.95833" fill="white" stroke="black" stroke-width="0.75" stroke-linejoin="round"/>
<rect x="21.125" y="16.9585" width="4.75" height="15.8333" fill="white" stroke="black" stroke-width="0.75" stroke-linejoin="round"/>
<path d="M23.501 17.0861C24.0288 16.2975 24.9084 15.287 26.1399 14.0545C27.9871 12.2058 30.1269 13.0706 30.538 14.4876C31.1244 16.5087 28.7788 17.3748 23.501 17.0861Z" fill="white" stroke="black" stroke-width="0.75" stroke-linejoin="round"/>
<path d="M23.501 17.0861C22.9732 16.2975 22.0936 15.287 20.8621 14.0545C19.0149 12.2058 16.8751 13.0706 16.4639 14.4876C15.8775 16.5087 18.2232 17.3748 23.501 17.0861Z" fill="white" stroke="black" stroke-width="0.75" stroke-linejoin="round"/>
</svg>
