<svg width="48" height="48" viewBox="0 0 48 48" fill="none" xmlns="http://www.w3.org/2000/svg">
<circle cx="24" cy="24" r="23" stroke="#8A941E"/>
<path fill-rule="evenodd" clip-rule="evenodd" d="M18.1792 8C16.9756 8 16 8.97565 16 10.1792V10.724L18.0061 33.7941C18.104 34.9202 19.0467 35.7845 20.1771 35.7845H27.1199C28.2323 35.7845 29.1661 34.9467 29.2863 33.8408L31.799 10.724V10.1792C31.799 8.97565 30.8234 8 29.6199 8H18.1792Z" stroke="black"/>
<path d="M16 10.724H31.799" stroke="black"/>
<path d="M19.8136 35.7845H27.4407V37.0533C27.4407 38.1578 26.5453 39.0533 25.4407 39.0533H21.8136C20.709 39.0533 19.8136 38.1578 19.8136 37.0533V35.7845Z" stroke="black"/>
<circle cx="23.7632" cy="21.4998" r="4" stroke="black" stroke-width="1.08959"/>
</svg>
