<svg width="48" height="48" viewBox="0 0 48 48" fill="none" xmlns="http://www.w3.org/2000/svg">
<circle cx="24" cy="24" r="23" stroke="#8A941E"/>
<path fill-rule="evenodd" clip-rule="evenodd" d="M22.4427 30.1113V28.6058C21.7347 28.0174 21.4714 27.0485 21.7842 26.1827C22.097 25.3169 22.9188 24.74 23.8394 24.74C24.7599 24.74 25.5817 25.3169 25.8945 26.1827C26.2073 27.0485 25.944 28.0174 25.236 28.6058V30.1113C25.236 30.8826 24.6107 31.508 23.8394 31.508C23.068 31.508 22.4427 30.8826 22.4427 30.1113ZM23.817 25.3355C23.3871 25.3498 22.9815 25.5381 22.6931 25.8572H22.6901C22.3703 26.1834 22.2104 26.634 22.2529 27.0889C22.2954 27.5438 22.536 27.9569 22.9107 28.2182C22.9889 28.2739 23.0355 28.3638 23.0359 28.4597V30.1083C23.0359 30.5504 23.3943 30.9087 23.8364 30.9087C24.2784 30.9087 24.6368 30.5504 24.6368 30.1083V28.4567C24.6373 28.3608 24.6839 28.2709 24.762 28.2153C25.3223 27.8131 25.5592 27.0955 25.3484 26.4389C25.1377 25.7823 24.5275 25.3365 23.8379 25.3355H23.817Z" fill="black"/>
<path d="M22.4427 28.6058H22.6927V28.4885L22.6025 28.4135L22.4427 28.6058ZM21.7842 26.1827L21.5491 26.0977L21.7842 26.1827ZM25.8945 26.1827L25.6594 26.2676L25.8945 26.1827ZM25.236 28.6058L25.0762 28.4135L24.986 28.4885V28.6058H25.236ZM22.6931 25.8572V26.1072H22.8041L22.8786 26.0248L22.6931 25.8572ZM23.817 25.3355V25.0853L23.8087 25.0856L23.817 25.3355ZM22.6901 25.8572V25.6072H22.5851L22.5116 25.6822L22.6901 25.8572ZM22.2529 27.0889L22.5018 27.0656L22.2529 27.0889ZM22.9107 28.2182L23.0557 28.0146L23.0538 28.0132L22.9107 28.2182ZM23.0359 28.4597H23.2859L23.2859 28.4586L23.0359 28.4597ZM24.6368 28.4567L24.3868 28.4556V28.4567H24.6368ZM24.762 28.2153L24.907 28.4189L24.9078 28.4184L24.762 28.2153ZM25.3484 26.4389L25.1104 26.5153L25.3484 26.4389ZM23.8379 25.3355L23.8382 25.0855H23.8379V25.3355ZM22.1927 28.6058V30.1113H22.6927V28.6058H22.1927ZM21.5491 26.0977C21.2005 27.0626 21.4939 28.1424 22.2829 28.7981L22.6025 28.4135C21.9755 27.8925 21.7423 27.0344 22.0193 26.2676L21.5491 26.0977ZM23.8394 24.49C22.8135 24.49 21.8976 25.1329 21.5491 26.0977L22.0193 26.2676C22.2963 25.5009 23.0241 24.99 23.8394 24.99V24.49ZM26.1297 26.0977C25.7811 25.1329 24.8652 24.49 23.8394 24.49V24.99C24.6546 24.99 25.3824 25.5009 25.6594 26.2676L26.1297 26.0977ZM25.3958 28.7981C26.1848 28.1424 26.4782 27.0626 26.1297 26.0977L25.6594 26.2676C25.9364 27.0344 25.7032 27.8925 25.0762 28.4135L25.3958 28.7981ZM25.486 30.1113V28.6058H24.986V30.1113H25.486ZM23.8394 31.758C24.7488 31.758 25.486 31.0207 25.486 30.1113H24.986C24.986 30.7446 24.4726 31.258 23.8394 31.258V31.758ZM22.1927 30.1113C22.1927 31.0207 22.9299 31.758 23.8394 31.758V31.258C23.2061 31.258 22.6927 30.7446 22.6927 30.1113H22.1927ZM22.8786 26.0248C23.1215 25.756 23.4632 25.5974 23.8253 25.5853L23.8087 25.0856C23.311 25.1022 22.8415 25.3201 22.5076 25.6895L22.8786 26.0248ZM22.6901 26.1072H22.6931V25.6072H22.6901V26.1072ZM22.5018 27.0656C22.4661 26.6839 22.6003 26.3059 22.8687 26.0322L22.5116 25.6822C22.1403 26.061 21.9546 26.584 22.004 27.1121L22.5018 27.0656ZM23.0538 28.0132C22.7394 27.7939 22.5375 27.4473 22.5018 27.0656L22.004 27.1121C22.0533 27.6402 22.3327 28.1198 22.7677 28.4233L23.0538 28.0132ZM23.2859 28.4586C23.2851 28.2821 23.1994 28.1169 23.0557 28.0146L22.7657 28.4219C22.7783 28.4309 22.7859 28.4454 22.7859 28.4609L23.2859 28.4586ZM23.2859 30.1083V28.4597H22.7859V30.1083H23.2859ZM23.8364 30.6587C23.5324 30.6587 23.2859 30.4123 23.2859 30.1083H22.7859C22.7859 30.6884 23.2562 31.1587 23.8364 31.1587V30.6587ZM24.3868 30.1083C24.3868 30.4123 24.1404 30.6587 23.8364 30.6587V31.1587C24.4165 31.1587 24.8868 30.6884 24.8868 30.1083H24.3868ZM24.3868 28.4567V30.1083H24.8868V28.4567H24.3868ZM24.617 28.0116C24.4733 28.1139 24.3876 28.2792 24.3868 28.4556L24.8868 28.4579C24.8869 28.4424 24.8944 28.4279 24.907 28.4189L24.617 28.0116ZM25.1104 26.5153C25.288 27.0686 25.0883 27.6733 24.6162 28.0122L24.9078 28.4184C25.5562 27.953 25.8304 27.1225 25.5865 26.3625L25.1104 26.5153ZM23.8375 25.5855C24.4186 25.5863 24.9328 25.962 25.1104 26.5153L25.5865 26.3625C25.3426 25.6026 24.6364 25.0867 23.8382 25.0855L23.8375 25.5855ZM23.817 25.5855H23.8379V25.0855H23.817V25.5855Z" fill="black"/>
<path fill-rule="evenodd" clip-rule="evenodd" d="M23.8378 8.16396C19.7217 8.16396 16.3849 11.5007 16.3849 15.6169V19.4924H16.0868C14.9343 19.4924 14 20.4267 14 21.5792V33.1759C14 34.3284 14.9343 35.2627 16.0868 35.2627H31.559C32.7116 35.2627 33.6459 34.3284 33.6459 33.1759V21.5792C33.6459 20.4267 32.7116 19.4924 31.559 19.4924H31.2609V15.6169C31.261 11.5124 27.9423 8.18038 23.8378 8.16396ZM16.9812 15.6169C16.9812 11.8383 20.0443 8.7751 23.8229 8.7751C27.6015 8.7751 30.6647 11.8383 30.6647 15.6169V19.4924H16.9812V15.6169ZM33.0496 33.1759V21.5792H33.0645C33.0646 21.1813 32.9055 20.7999 32.6227 20.5199C32.3399 20.2399 31.957 20.0846 31.5591 20.0886H16.0868C15.2636 20.0886 14.5962 20.756 14.5962 21.5792V33.1759C14.5962 33.9991 15.2636 34.6665 16.0868 34.6665H31.5591C31.9544 34.6665 32.3335 34.5095 32.6131 34.2299C32.8926 33.9504 33.0496 33.5712 33.0496 33.1759Z" fill="black"/>
<path d="M23.8378 8.16396L23.8394 7.78558H23.8378V8.16396ZM16.3849 19.4924V19.8708H16.7633V19.4924H16.3849ZM31.2609 19.4924H30.8826V19.8708H31.2609V19.4924ZM31.2609 15.6169L30.8826 15.6169V15.6169H31.2609ZM30.6647 19.4924V19.8708H31.0431V19.4924H30.6647ZM16.9812 19.4924H16.6028V19.8708H16.9812V19.4924ZM33.0496 21.5792V21.2008H32.6713V21.5792H33.0496ZM33.0645 21.5792V21.9576H33.4429L33.4429 21.5792L33.0645 21.5792ZM32.6227 20.5199L32.8889 20.251L32.8889 20.251L32.6227 20.5199ZM31.5591 20.0886V20.467L31.5628 20.467L31.5591 20.0886ZM32.6131 34.2299L32.8806 34.4975H32.8806L32.6131 34.2299ZM16.7633 15.6169C16.7633 11.7097 19.9307 8.54234 23.8378 8.54234V7.78558C19.5127 7.78558 16.0066 11.2918 16.0066 15.6169H16.7633ZM16.7633 19.4924V15.6169H16.0066V19.4924H16.7633ZM16.0868 19.8708H16.3849V19.114H16.0868V19.8708ZM14.3784 21.5792C14.3784 20.6357 15.1433 19.8708 16.0868 19.8708V19.114C14.7253 19.114 13.6216 20.2177 13.6216 21.5792H14.3784ZM14.3784 33.1759V21.5792H13.6216V33.1759H14.3784ZM16.0868 34.8844C15.1433 34.8844 14.3784 34.1195 14.3784 33.1759H13.6216C13.6216 34.5374 14.7253 35.6411 16.0868 35.6411V34.8844ZM31.559 34.8844H16.0868V35.6411H31.559V34.8844ZM33.2675 33.1759C33.2675 34.1195 32.5026 34.8844 31.559 34.8844V35.6411C32.9205 35.6411 34.0242 34.5374 34.0242 33.1759H33.2675ZM33.2675 21.5792V33.1759H34.0242V21.5792H33.2675ZM31.559 19.8708C32.5026 19.8708 33.2675 20.6357 33.2675 21.5792H34.0242C34.0242 20.2177 32.9205 19.114 31.559 19.114V19.8708ZM31.2609 19.8708H31.559V19.114H31.2609V19.8708ZM30.8826 15.6169V19.4924H31.6393V15.6169H30.8826ZM23.8363 8.54234C27.7324 8.55792 30.8826 11.7207 30.8826 15.6169L31.6393 15.6169C31.6393 11.304 28.1522 7.80284 23.8394 7.78559L23.8363 8.54234ZM23.8229 8.39672C19.8354 8.39672 16.6028 11.6293 16.6028 15.6169H17.3595C17.3595 12.0472 20.2533 9.15348 23.8229 9.15348V8.39672ZM31.0431 15.6169C31.0431 11.6293 27.8105 8.39672 23.8229 8.39672V9.15348C27.3926 9.15348 30.2863 12.0472 30.2863 15.6169H31.0431ZM31.0431 19.4924V15.6169H30.2863V19.4924H31.0431ZM16.9812 19.8708H30.6647V19.114H16.9812V19.8708ZM16.6028 15.6169V19.4924H17.3595V15.6169H16.6028ZM32.6713 21.5792V33.1759H33.428V21.5792H32.6713ZM33.0645 21.2008H33.0496V21.9576H33.0645V21.2008ZM32.3565 20.7888C32.5675 20.9977 32.6862 21.2823 32.6862 21.5792L33.4429 21.5792C33.4429 21.0803 33.2435 20.602 32.8889 20.251L32.3565 20.7888ZM31.5628 20.467C31.8597 20.464 32.1455 20.5799 32.3565 20.7888L32.8889 20.251C32.5344 19.9 32.0542 19.7053 31.5553 19.7103L31.5628 20.467ZM16.0868 20.467H31.5591V19.7102H16.0868V20.467ZM14.9746 21.5792C14.9746 20.9649 15.4726 20.467 16.0868 20.467V19.7102C15.0546 19.7102 14.2179 20.547 14.2179 21.5792H14.9746ZM14.9746 33.1759V21.5792H14.2179V33.1759H14.9746ZM16.0868 34.2881C15.4726 34.2881 14.9746 33.7902 14.9746 33.1759H14.2179C14.2179 34.2081 15.0546 35.0449 16.0868 35.0449V34.2881ZM31.5591 34.2881H16.0868V35.0449H31.5591V34.2881ZM32.3455 33.9624C32.1369 34.1709 31.854 34.2881 31.5591 34.2881V35.0449C32.0547 35.0449 32.5301 34.848 32.8806 34.4975L32.3455 33.9624ZM32.6713 33.1759C32.6713 33.4709 32.5541 33.7538 32.3455 33.9624L32.8806 34.4975C33.2311 34.147 33.428 33.6716 33.428 33.1759H32.6713Z" fill="black"/>
</svg>
