<svg width="46" height="46" viewBox="0 0 46 46" fill="none" xmlns="http://www.w3.org/2000/svg">
<circle cx="23" cy="23" r="22" stroke="#8A941E"/>
<path fill-rule="evenodd" clip-rule="evenodd" d="M29.3472 28.0346L34.0778 31.962C34.6897 32.4686 34.7948 33.3671 34.3162 34.0012L32.8136 35.9929C32.3506 36.6203 31.6626 37.0438 30.8939 37.1747C30.234 37.2807 29.5628 37.2976 28.8984 37.2249C26.0101 36.9214 21.9675 34.9617 16.9162 28.7239C10.5662 20.8809 10.4963 16.003 11.5557 13.2922C11.8437 12.5677 12.401 11.9828 13.1107 11.6601L15.3722 10.6058C16.0918 10.27 16.9481 10.5596 17.3162 11.2632L20.174 16.7073C20.5327 17.3979 20.301 18.2483 19.6417 18.6616L17.582 19.943C17.3106 20.1086 17.2026 20.4487 17.3288 20.7405L17.4537 21.0387L17.4537 21.0387C17.865 22.025 18.3781 23.2554 20.4743 25.8451C22.5705 28.4348 23.6665 29.1912 24.5474 29.7987L24.8129 29.9838C25.0723 30.1658 25.4262 30.1293 25.643 29.8982L27.3251 28.1486C27.8664 27.5892 28.7466 27.5396 29.3472 28.0346ZM32.1398 35.4905L33.6396 33.4972C33.8474 33.2222 33.8018 32.8323 33.5361 32.6127L28.806 28.6853C28.5453 28.4708 28.1636 28.4922 27.9285 28.7345L26.2469 30.4833C25.7429 31.0164 24.9236 31.0976 24.3247 30.6739L24.0655 30.4933L24.0645 30.4927C23.1397 29.8544 21.9888 29.0601 19.8152 26.3762C17.6417 23.6924 17.1042 22.4011 16.6721 21.3632L16.6717 21.3621L16.5493 21.0714C16.2594 20.3974 16.5092 19.6129 17.1353 19.2307L19.1955 17.9493C19.4815 17.7698 19.5818 17.4008 19.426 17.1012L18.1231 14.6185L16.5711 11.6578C16.4113 11.3525 16.0397 11.2269 15.7274 11.3727L13.466 12.4254C12.9532 12.657 12.5498 13.0781 12.3402 13.6004C11.3619 16.1033 11.4747 20.6664 17.571 28.1951C23.6672 35.7239 28.1072 36.7831 30.7583 36.3464C31.312 36.2502 31.8071 35.9434 32.1398 35.4905Z" fill="black"/>
</svg>
